# xmcd CD database file
#
# Track frame offsets:
#	150
#	21360
#	45484
#	67764
#	90183
#	112853
#	140596
#	160661
#
# Disc length: 2397 seconds
#
# Revision: 0
# Processed by: cddbd v1.5.1PL2 Copyright (c) Steve Scherf et al.
# Submitted via: CDex 1.51
#
DISCID=54095b08
DTITLE=Puerto Rican Power - Puerto Rican Power: Canta Tito Rojas
DYEAR=1987
DGENRE=Salsa
TTITLE0=Amar No Se Puede Apurar 
TTITLE1=No Puedo Precindir De Ti 
TTITLE2=Con Ella 
TTITLE3=Solo Con Un Beso
TTITLE4=A Pesar De T
TTITLE5=Voy A Ti, Voy A Mi 
TTITLE6=Amame 
TTITLE7=Hoy Te Quiero Cantar 
EXTD=YEAR: 1987
EXTT0=
EXTT1=
EXTT2=
EXTT3=
EXTT4=
EXTT5=
EXTT6=
EXTT7=
PLAYORDER=
